<?xml version="1.0" encoding="UTF-8" standalone="no"?>
<!DOCTYPE svg PUBLIC "-//W3C//DTD SVG 1.1//EN"
 "http://www.w3.org/Graphics/SVG/1.1/DTD/svg11.dtd">
<!-- Generated by graphviz version 7.0.1 (20221109.1506)
 -->
<!-- Pages: 1 -->
<svg width="348pt" height="107pt"
 viewBox="0.00 0.00 348.00 106.70" xmlns="http://www.w3.org/2000/svg" xmlns:xlink="http://www.w3.org/1999/xlink">
<g id="graph0" class="graph" transform="scale(1 1) rotate(0) translate(4 102.7)">
<polygon fill="white" stroke="none" points="-4,4 -4,-102.7 344,-102.7 344,4 -4,4"/>
<!-- obstacle y -->
<g id="node1" class="node">
<title>obstacle y</title>
<polygon fill="lightgray" stroke="black" points="52,-98.7 0,-98.7 0,-80.7 52,-80.7 52,-98.7"/>
<text text-anchor="middle" x="26" y="-87.5" font-family="Times,serif" font-size="9.00">obstacle y</text>
</g>
<!-- dist from player to obstacle -->
<g id="node2" class="node">
<title>dist from player to obstacle</title>
<polygon fill="lightgray" stroke="black" points="183.5,-98.7 70.5,-98.7 70.5,-80.7 183.5,-80.7 183.5,-98.7"/>
<text text-anchor="middle" x="127" y="-87.5" font-family="Times,serif" font-size="9.00">dist from player to obstacle</text>
</g>
<!-- 0 -->
<g id="node5" class="node">
<title>0</title>
<ellipse fill="lightblue" stroke="black" cx="231" cy="-14.85" rx="14.7" ry="14.7"/>
<text text-anchor="middle" x="231" y="-12.65" font-family="Times,serif" font-size="9.00">0</text>
</g>
<!-- dist from player to obstacle&#45;&gt;0 -->
<g id="edge1" class="edge">
<title>dist from player to obstacle&#45;&gt;0</title>
<path fill="none" stroke="red" stroke-width="0.44" d="M138.93,-80.34C156.41,-68.1 189.2,-45.13 210.56,-30.16"/>
<polygon fill="red" stroke="red" stroke-width="0.44" points="212.49,-33.09 218.67,-24.49 208.47,-27.36 212.49,-33.09"/>
<text text-anchor="middle" x="200.5" y="-51.5" font-family="Times,serif" font-size="14.00">&#45;1.68</text>
</g>
<!-- obstacle vel -->
<g id="node3" class="node">
<title>obstacle vel</title>
<polygon fill="lightgray" stroke="black" points="260,-98.7 202,-98.7 202,-80.7 260,-80.7 260,-98.7"/>
<text text-anchor="middle" x="231" y="-87.5" font-family="Times,serif" font-size="9.00">obstacle vel</text>
</g>
<!-- obstacle vel&#45;&gt;0 -->
<g id="edge2" class="edge">
<title>obstacle vel&#45;&gt;0</title>
<path fill="none" stroke="green" stroke-width="0.18" d="M231,-80.34C231,-70.51 231,-53.77 231,-39.8"/>
<polygon fill="green" stroke="green" stroke-width="0.18" points="234.5,-40.11 231,-30.11 227.5,-40.11 234.5,-40.11"/>
<text text-anchor="middle" x="243.5" y="-51.5" font-family="Times,serif" font-size="14.00">0.42</text>
</g>
<!-- obstacle type -->
<g id="node4" class="node">
<title>obstacle type</title>
<polygon fill="lightgray" stroke="black" points="340,-98.7 278,-98.7 278,-80.7 340,-80.7 340,-98.7"/>
<text text-anchor="middle" x="309" y="-87.5" font-family="Times,serif" font-size="9.00">obstacle type</text>
</g>
<!-- obstacle type&#45;&gt;0 -->
<g id="edge3" class="edge">
<title>obstacle type&#45;&gt;0</title>
<path fill="none" stroke="red" stroke-width="0.19" d="M300.05,-80.34C287.6,-68.72 264.79,-47.41 248.8,-32.48"/>
<polygon fill="red" stroke="red" stroke-width="0.19" points="251.49,-30.2 241.79,-25.93 246.71,-35.31 251.49,-30.2"/>
<text text-anchor="middle" x="293.5" y="-51.5" font-family="Times,serif" font-size="14.00">&#45;0.46</text>
</g>
</g>
</svg>
