<?xml version="1.0" encoding="UTF-8" standalone="no"?>
<!DOCTYPE svg PUBLIC "-//W3C//DTD SVG 1.1//EN"
 "http://www.w3.org/Graphics/SVG/1.1/DTD/svg11.dtd">
<!-- Generated by graphviz version 7.0.1 (20221109.1506)
 -->
<!-- Pages: 1 -->
<svg width="348pt" height="107pt"
 viewBox="0.00 0.00 348.00 106.70" xmlns="http://www.w3.org/2000/svg" xmlns:xlink="http://www.w3.org/1999/xlink">
<g id="graph0" class="graph" transform="scale(1 1) rotate(0) translate(4 102.7)">
<polygon fill="white" stroke="none" points="-4,4 -4,-102.7 344,-102.7 344,4 -4,4"/>
<!-- obstacle y -->
<g id="node1" class="node">
<title>obstacle y</title>
<polygon fill="lightgray" stroke="black" points="52,-98.7 0,-98.7 0,-80.7 52,-80.7 52,-98.7"/>
<text text-anchor="middle" x="26" y="-87.5" font-family="Times,serif" font-size="9.00">obstacle y</text>
</g>
<!-- 0 -->
<g id="node5" class="node">
<title>0</title>
<ellipse fill="lightblue" stroke="black" cx="179" cy="-14.85" rx="14.7" ry="14.7"/>
<text text-anchor="middle" x="179" y="-12.65" font-family="Times,serif" font-size="9.00">0</text>
</g>
<!-- obstacle y&#45;&gt;0 -->
<g id="edge1" class="edge">
<title>obstacle y&#45;&gt;0</title>
<path fill="none" stroke="green" stroke-width="0.15" d="M43.85,-80.2C71.88,-66.86 126.14,-41.02 156.7,-26.47"/>
<polygon fill="green" stroke="green" stroke-width="0.15" points="157.99,-29.73 165.51,-22.27 154.98,-23.41 157.99,-29.73"/>
<text text-anchor="middle" x="124.5" y="-51.5" font-family="Times,serif" font-size="14.00">0.27</text>
</g>
<!-- dist from player to obstacle -->
<g id="node2" class="node">
<title>dist from player to obstacle</title>
<polygon fill="lightgray" stroke="black" points="183.5,-98.7 70.5,-98.7 70.5,-80.7 183.5,-80.7 183.5,-98.7"/>
<text text-anchor="middle" x="127" y="-87.5" font-family="Times,serif" font-size="9.00">dist from player to obstacle</text>
</g>
<!-- dist from player to obstacle&#45;&gt;0 -->
<g id="edge2" class="edge">
<title>dist from player to obstacle&#45;&gt;0</title>
<path fill="none" stroke="red" stroke-width="0.26" d="M132.97,-80.34C140.65,-69.57 154.27,-50.49 164.71,-35.87"/>
<polygon fill="red" stroke="red" stroke-width="0.26" points="167.52,-37.96 170.48,-27.78 161.82,-33.89 167.52,-37.96"/>
<text text-anchor="middle" x="171.5" y="-51.5" font-family="Times,serif" font-size="14.00">&#45;0.82</text>
</g>
<!-- obstacle vel -->
<g id="node3" class="node">
<title>obstacle vel</title>
<polygon fill="lightgray" stroke="black" points="260,-98.7 202,-98.7 202,-80.7 260,-80.7 260,-98.7"/>
<text text-anchor="middle" x="231" y="-87.5" font-family="Times,serif" font-size="9.00">obstacle vel</text>
</g>
<!-- obstacle vel&#45;&gt;0 -->
<g id="edge3" class="edge">
<title>obstacle vel&#45;&gt;0</title>
<path fill="none" stroke="green" stroke-width="0.1" d="M225.03,-80.34C217.27,-69.47 203.47,-50.13 193,-35.46"/>
<polygon fill="green" stroke="green" stroke-width="0.1" points="196.03,-33.69 187.38,-27.58 190.34,-37.76 196.03,-33.69"/>
<text text-anchor="middle" x="223.5" y="-51.5" font-family="Times,serif" font-size="14.00">0.01</text>
</g>
<!-- obstacle type -->
<g id="node4" class="node">
<title>obstacle type</title>
<polygon fill="lightgray" stroke="black" points="340,-98.7 278,-98.7 278,-80.7 340,-80.7 340,-98.7"/>
<text text-anchor="middle" x="309" y="-87.5" font-family="Times,serif" font-size="9.00">obstacle type</text>
</g>
<!-- obstacle type&#45;&gt;0 -->
<g id="edge4" class="edge">
<title>obstacle type&#45;&gt;0</title>
<path fill="none" stroke="red" stroke-width="0.17" d="M295.38,-80.31C281.56,-71.86 259.47,-58.56 240,-47.7 227.12,-40.52 212.48,-32.86 200.77,-26.85"/>
<polygon fill="red" stroke="red" stroke-width="0.17" points="202.46,-23.78 191.96,-22.35 199.28,-30.02 202.46,-23.78"/>
<text text-anchor="middle" x="278.5" y="-51.5" font-family="Times,serif" font-size="14.00">&#45;0.36</text>
</g>
</g>
</svg>
